<svg width="1080" height="1080" viewBox="0 0 1080 1080" fill="none" xmlns="http://www.w3.org/2000/svg">
<rect width="1080" height="1080" fill="white"/>
<rect x="78" y="158" width="924" height="616" rx="30" fill="#181818"/>
<g filter="url(#filter0_ii)">
<rect x="105" y="176" width="869" height="579" rx="30" fill="#0082CB"/>
</g>
<path d="M668.195 457.199C671.266 457.199 673.352 454.703 673.352 450.906C673.352 447.109 671.266 444.613 668.207 444.613C666.297 444.613 664.727 445.68 664.035 447.355H664V440.09H662.441V457H663.93V454.422H663.965C664.691 456.133 666.25 457.199 668.195 457.199ZM667.902 445.984C670.246 445.984 671.758 447.93 671.758 450.906C671.758 453.895 670.246 455.828 667.902 455.828C665.605 455.828 663.988 453.836 663.988 450.906C663.988 447.988 665.617 445.984 667.902 445.984ZM675.438 457H676.984V449.406C676.984 447.438 678.086 446.09 679.82 446.09C680.348 446.09 680.781 446.172 680.98 446.266V444.742C680.793 444.695 680.43 444.613 680.02 444.613C678.52 444.613 677.383 445.492 676.938 446.98H676.902V444.812H675.438V457ZM686.898 457.199C690.215 457.199 692.453 454.773 692.453 450.906C692.453 447.027 690.215 444.613 686.898 444.613C683.594 444.613 681.344 447.027 681.344 450.906C681.344 454.773 683.582 457.199 686.898 457.199ZM686.898 455.828C684.508 455.828 682.926 454 682.926 450.906C682.926 447.812 684.508 445.984 686.898 445.984C689.289 445.984 690.883 447.812 690.883 450.906C690.883 454 689.289 455.828 686.898 455.828ZM704.289 444.812H702.742V452.043C702.742 454.328 701.312 455.816 699.191 455.816C697.152 455.816 696.004 454.621 696.004 452.465V444.812H694.445V452.734C694.445 455.477 696.098 457.199 698.746 457.199C700.68 457.199 702.145 456.238 702.789 454.738H702.824V457H704.289V444.812ZM711.777 455.746C709.48 455.746 707.945 453.824 707.945 450.883C707.945 447.918 709.48 445.984 711.777 445.984C714.121 445.984 715.703 447.953 715.703 450.871C715.703 453.789 714.121 455.746 711.777 455.746ZM711.93 461.512C715.188 461.512 717.262 459.637 717.262 456.801V444.812H715.785V447.391H715.75C715.035 445.727 713.477 444.613 711.531 444.613C708.414 444.613 706.352 447.086 706.352 450.871C706.352 454.645 708.414 457.117 711.496 457.117C713.441 457.117 715.012 455.98 715.668 454.41H715.703V456.859C715.703 458.852 714.285 460.176 712 460.176C710.23 460.176 708.93 459.32 708.531 458.125H706.926C707.266 460.047 709.27 461.512 711.93 461.512ZM720.051 457H721.609V449.828C721.609 447.531 723.027 445.996 725.219 445.996C727.281 445.996 728.465 447.273 728.465 449.383V457H730.023V449.125C730.023 446.395 728.336 444.613 725.664 444.613C723.719 444.613 722.266 445.562 721.645 447.062H721.609V440.09H720.051V457ZM733.293 441.766V444.812H731.477V446.102H733.293V454C733.293 456.203 734.113 457.07 736.152 457.07C736.48 457.07 737.137 457.035 737.301 457V455.676C737.207 455.699 736.621 455.723 736.457 455.723C735.332 455.723 734.84 455.184 734.84 453.93V446.102H737.242V444.812H734.84V441.766H733.293ZM745.035 441.766V444.812H743.219V446.102H745.035V454C745.035 456.203 745.855 457.07 747.895 457.07C748.223 457.07 748.879 457.035 749.043 457V455.676C748.949 455.699 748.363 455.723 748.199 455.723C747.074 455.723 746.582 455.184 746.582 453.93V446.102H748.984V444.812H746.582V441.766H745.035ZM755.711 457.199C759.027 457.199 761.266 454.773 761.266 450.906C761.266 447.027 759.027 444.613 755.711 444.613C752.406 444.613 750.156 447.027 750.156 450.906C750.156 454.773 752.395 457.199 755.711 457.199ZM755.711 455.828C753.32 455.828 751.738 454 751.738 450.906C751.738 447.812 753.32 445.984 755.711 445.984C758.102 445.984 759.695 447.812 759.695 450.906C759.695 454 758.102 455.828 755.711 455.828ZM769.117 461.406C771.121 461.406 771.988 460.609 773.055 457.738L777.848 444.812H776.219L772.504 455.453H772.469L768.766 444.812H767.102L771.672 457.082L771.344 457.996C770.805 459.52 770.195 460.082 769.082 460.082C768.836 460.082 768.531 460.059 768.344 460.012V461.336C768.52 461.371 768.871 461.406 769.117 461.406ZM784.07 457.199C787.387 457.199 789.625 454.773 789.625 450.906C789.625 447.027 787.387 444.613 784.07 444.613C780.766 444.613 778.516 447.027 778.516 450.906C778.516 454.773 780.754 457.199 784.07 457.199ZM784.07 455.828C781.68 455.828 780.098 454 780.098 450.906C780.098 447.812 781.68 445.984 784.07 445.984C786.461 445.984 788.055 447.812 788.055 450.906C788.055 454 786.461 455.828 784.07 455.828ZM801.461 444.812H799.914V452.043C799.914 454.328 798.484 455.816 796.363 455.816C794.324 455.816 793.176 454.621 793.176 452.465V444.812H791.617V452.734C791.617 455.477 793.27 457.199 795.918 457.199C797.852 457.199 799.316 456.238 799.961 454.738H799.996V457H801.461V444.812ZM814.914 457.199C817.984 457.199 820.07 454.703 820.07 450.906C820.07 447.109 817.984 444.613 814.926 444.613C813.016 444.613 811.445 445.68 810.754 447.355H810.719V440.09H809.16V457H810.648V454.422H810.684C811.41 456.133 812.969 457.199 814.914 457.199ZM814.621 445.984C816.965 445.984 818.477 447.93 818.477 450.906C818.477 453.895 816.965 455.828 814.621 455.828C812.324 455.828 810.707 453.836 810.707 450.906C810.707 447.988 812.336 445.984 814.621 445.984ZM822.766 461.406C824.77 461.406 825.637 460.609 826.703 457.738L831.496 444.812H829.867L826.152 455.453H826.117L822.414 444.812H820.75L825.32 457.082L824.992 457.996C824.453 459.52 823.844 460.082 822.73 460.082C822.484 460.082 822.18 460.059 821.992 460.012V461.336C822.168 461.371 822.52 461.406 822.766 461.406ZM662.348 473.824V473.836H663.895V473.824C663.918 471.762 665.547 470.227 667.715 470.227C669.789 470.227 671.43 471.68 671.43 473.531C671.43 475.008 670.82 476.016 668.406 478.559L662.43 484.875V486H673.457V484.57H664.668V484.523L669.379 479.602C672.191 476.684 673.023 475.289 673.023 473.438C673.023 470.848 670.715 468.82 667.762 468.82C664.668 468.82 662.371 470.941 662.348 473.824ZM677.676 486V479.965L679.762 477.703L686.477 486H688.527L680.887 476.566L687.836 469.09H685.809L677.77 477.855H677.676V469.09H676.082V486H677.676ZM691.176 489.234L692.652 483.586H691L689.875 489.234H691.176ZM701.207 470.52H705.391C707.852 470.52 709.34 471.844 709.34 474.082C709.34 476.344 707.91 477.656 705.449 477.656H701.207V470.52ZM701.207 479.074H705.449C705.531 479.074 705.648 479.074 705.707 479.074L709.598 486H711.473L707.371 478.816C709.633 478.23 710.992 476.426 710.992 474.035C710.992 471.023 708.883 469.09 705.578 469.09H699.613V486H701.207V479.074ZM717.215 484.863C715.562 484.863 714.426 483.949 714.426 482.625C714.426 481.277 715.492 480.445 717.414 480.316L721.023 480.07V481.418C721.023 483.352 719.348 484.863 717.215 484.863ZM716.898 486.199C718.715 486.199 720.379 485.191 721.059 483.68H721.094V486H722.57V477.656C722.57 475.172 720.824 473.613 718.047 473.613C715.27 473.613 713.477 475.16 713.301 477.34H714.801C715.07 475.863 716.219 474.984 718.012 474.984C719.91 474.984 721.023 476.039 721.023 477.797V478.852L717.227 479.086C714.414 479.273 712.855 480.539 712.855 482.625C712.855 484.758 714.496 486.199 716.898 486.199ZM725.793 486H727.352V475.102H729.965V473.812H727.34V472.301C727.34 470.941 727.961 470.344 729.133 470.344C729.461 470.344 729.789 470.379 730.035 470.426V469.148C729.777 469.102 729.332 469.055 728.91 469.055C726.871 469.055 725.793 470.062 725.793 472.266V473.812H724.094V475.102H725.793V486ZM732.613 486H734.172V475.102H736.785V473.812H734.16V472.301C734.16 470.941 734.781 470.344 735.953 470.344C736.281 470.344 736.609 470.379 736.855 470.426V469.148C736.598 469.102 736.152 469.055 735.73 469.055C733.691 469.055 732.613 470.062 732.613 472.266V473.812H730.914V475.102H732.613V486ZM738.918 486H740.465V469.09H738.918V486ZM748.059 474.973C750.262 474.973 751.727 476.648 751.762 479.051H744.238C744.367 476.648 745.879 474.973 748.059 474.973ZM751.668 482.543C751.328 483.879 750.051 484.84 748.211 484.84C745.785 484.84 744.227 483.129 744.227 480.375V480.281H753.355V479.625C753.355 475.992 751.316 473.613 748.082 473.613C744.777 473.613 742.633 476.156 742.633 479.941C742.633 483.809 744.754 486.199 748.176 486.199C750.859 486.199 752.84 484.652 753.203 482.543H751.668ZM755.184 477.07C755.184 478.688 756.238 479.73 758.441 480.281L760.422 480.773C762.051 481.172 762.66 481.734 762.66 482.789C762.66 484.066 761.453 484.922 759.625 484.922C757.797 484.922 756.602 484.031 756.379 482.59H754.832C755.031 484.734 756.918 486.199 759.531 486.199C762.285 486.199 764.219 484.734 764.219 482.672C764.219 480.926 763.305 480.035 760.867 479.426L759.062 478.992C757.434 478.594 756.719 477.984 756.719 476.988C756.719 475.77 757.855 474.891 759.52 474.891C761.207 474.891 762.32 475.781 762.508 477.223H763.996C763.844 475.078 762.062 473.613 759.566 473.613C756.988 473.613 755.184 475.055 755.184 477.07ZM773.066 486V469.09H771.473V486H773.066ZM775.984 486H777.531V478.781C777.531 476.52 778.949 474.996 781.059 474.996C783.098 474.996 784.27 476.215 784.27 478.348V486H785.816V478.102C785.816 475.336 784.176 473.613 781.504 473.613C779.535 473.613 778.105 474.586 777.484 476.062H777.449V473.812H775.984V486ZM788.184 477.07C788.184 478.688 789.238 479.73 791.441 480.281L793.422 480.773C795.051 481.172 795.66 481.734 795.66 482.789C795.66 484.066 794.453 484.922 792.625 484.922C790.797 484.922 789.602 484.031 789.379 482.59H787.832C788.031 484.734 789.918 486.199 792.531 486.199C795.285 486.199 797.219 484.734 797.219 482.672C797.219 480.926 796.305 480.035 793.867 479.426L792.062 478.992C790.434 478.594 789.719 477.984 789.719 476.988C789.719 475.77 790.855 474.891 792.52 474.891C794.207 474.891 795.32 475.781 795.508 477.223H796.996C796.844 475.078 795.062 473.613 792.566 473.613C789.988 473.613 788.184 475.055 788.184 477.07ZM799.973 470.766V473.812H798.156V475.102H799.973V483C799.973 485.203 800.793 486.07 802.832 486.07C803.16 486.07 803.816 486.035 803.98 486V484.676C803.887 484.699 803.301 484.723 803.137 484.723C802.012 484.723 801.52 484.184 801.52 482.93V475.102H803.922V473.812H801.52V470.766H799.973ZM806.23 486H807.777V473.812H806.23V486ZM807.004 471.352C807.578 471.352 808.047 470.895 808.047 470.32C808.047 469.758 807.578 469.301 807.004 469.301C806.441 469.301 805.973 469.758 805.973 470.32C805.973 470.895 806.441 471.352 807.004 471.352ZM811.223 470.766V473.812H809.406V475.102H811.223V483C811.223 485.203 812.043 486.07 814.082 486.07C814.41 486.07 815.066 486.035 815.23 486V484.676C815.137 484.699 814.551 484.723 814.387 484.723C813.262 484.723 812.77 484.184 812.77 482.93V475.102H815.172V473.812H812.77V470.766H811.223ZM827.148 473.812H825.602V481.043C825.602 483.328 824.172 484.816 822.051 484.816C820.012 484.816 818.863 483.621 818.863 481.465V473.812H817.305V481.734C817.305 484.477 818.957 486.199 821.605 486.199C823.539 486.199 825.004 485.238 825.648 483.738H825.684V486H827.148V473.812ZM830.488 470.766V473.812H828.672V475.102H830.488V483C830.488 485.203 831.309 486.07 833.348 486.07C833.676 486.07 834.332 486.035 834.496 486V484.676C834.402 484.699 833.816 484.723 833.652 484.723C832.527 484.723 832.035 484.184 832.035 482.93V475.102H834.438V473.812H832.035V470.766H830.488ZM836.746 486H838.293V473.812H836.746V486ZM837.52 471.352C838.094 471.352 838.562 470.895 838.562 470.32C838.562 469.758 838.094 469.301 837.52 469.301C836.957 469.301 836.488 469.758 836.488 470.32C836.488 470.895 836.957 471.352 837.52 471.352ZM846.016 486.199C849.332 486.199 851.57 483.773 851.57 479.906C851.57 476.027 849.332 473.613 846.016 473.613C842.711 473.613 840.461 476.027 840.461 479.906C840.461 483.773 842.699 486.199 846.016 486.199ZM846.016 484.828C843.625 484.828 842.043 483 842.043 479.906C842.043 476.812 843.625 474.984 846.016 474.984C848.406 474.984 850 476.812 850 479.906C850 483 848.406 484.828 846.016 484.828ZM853.633 486H855.18V478.781C855.18 476.52 856.598 474.996 858.707 474.996C860.746 474.996 861.918 476.215 861.918 478.348V486H863.465V478.102C863.465 475.336 861.824 473.613 859.152 473.613C857.184 473.613 855.754 474.586 855.133 476.062H855.098V473.812H853.633V486Z" fill="white"/>
<path d="M209.562 376V308.359H189.688V376H209.562ZM254.047 376V324.156H271.859V308.359H216.359V324.156H234.172V376H254.047ZM236.094 475.203H209.562V423.359H189.688V491H236.094V475.203ZM242.516 491H261.734V439.25H242.516V491ZM252.125 436.391C257.562 436.391 261.688 432.453 261.688 427.297C261.688 422.141 257.562 418.203 252.125 418.203C246.688 418.203 242.562 422.141 242.562 427.297C242.562 432.453 246.688 436.391 252.125 436.391ZM273.594 427.906V439.25H266.75V453.172H273.594V476.562C273.594 486.781 279.359 491 293.984 491C297.641 491 300.078 490.672 301.906 490.297V476.984C300.781 477.172 300.078 477.219 298.625 477.219C294.688 477.219 292.812 475.531 292.812 472.297V453.172H301.906V439.25H292.812V427.906H273.594ZM333.781 451.156C338.281 451.156 341.516 454.156 341.844 458.797H325.719C326.094 454.344 329.422 451.156 333.781 451.156ZM342.406 474.219C341.281 477.312 338.141 479.141 334.25 479.141C329.094 479.141 325.438 475.484 325.438 470.422V469.203H359.75V464C359.75 448.156 349.391 437.938 333.359 437.938C317.094 437.938 306.922 448.484 306.922 465.406C306.922 482.234 317 492.312 333.969 492.312C348.172 492.312 357.922 485.375 359.516 474.219H342.406ZM365.609 491H384.828V465.219C384.828 458 388.531 454.297 395.75 454.297C397.719 454.297 399.688 454.672 401.328 455.375V439.25C400.062 438.781 398.562 438.5 396.828 438.5C390.688 438.5 386.703 442.062 384.734 449.422H384.359V439.25H365.609V491ZM427.203 478.906C423.828 478.906 421.531 477.266 421.531 474.453C421.531 471.922 423.594 470.188 427.25 469.906L435.406 469.344V472.719C435.406 476.516 431.469 478.906 427.203 478.906ZM420.031 491.75C426.031 491.75 432.312 489.125 435.031 484.062H435.406V491H454.156V455.609C454.156 445.109 444.547 437.938 430.203 437.938C415.109 437.938 405.734 444.922 405.266 455.984H422.422C422.703 453.359 425.234 451.203 429.172 451.203C432.781 451.203 435.406 453.078 435.406 456.547V459.078L424.062 459.781C410.234 460.625 402.594 466.016 402.594 475.953C402.594 485.281 410.609 491.75 420.031 491.75ZM512.234 460.672C512 446.656 502.062 437.938 487.016 437.938C470.375 437.938 460.109 448.203 460.109 465.078C460.109 482.141 470.328 492.312 487.109 492.312C502.484 492.312 512.047 483.922 512.234 469.906H494.75C494.422 475.016 491.656 478.016 487.344 478.016C482.234 478.016 479.562 473.516 479.562 465.078C479.562 456.734 482.281 452.234 487.344 452.234C491.469 452.234 494.375 455.422 494.75 460.672H512.234ZM526.766 509.984C543.594 509.984 552.172 504.172 556.578 489.781L572 439.25H551.703L543.875 477.219H543.5L535.625 439.25H514.297L531.266 491C531.406 491.422 531.5 491.984 531.5 492.406C531.5 494.703 529.062 495.688 523.625 495.688H519.922V509.984H526.766ZM209.562 606V538.359H189.688V606H209.562ZM217.859 606H237.078V577.078C237.078 572.25 239.844 568.734 244.391 568.734C249.219 568.734 251.656 571.922 251.656 577.125V606H270.875V572.859C270.875 560.438 264.5 553.219 252.875 553.219C245 553.219 239.609 557.156 236.984 564.422H236.609V554.25H217.859V606ZM277.859 606H297.078V554.25H277.859V606ZM287.469 551.391C292.906 551.391 297.031 547.453 297.031 542.297C297.031 537.141 292.906 533.203 287.469 533.203C282.031 533.203 277.906 537.141 277.906 542.297C277.906 547.453 282.031 551.391 287.469 551.391ZM308.938 542.906V554.25H302.094V568.172H308.938V591.562C308.938 601.781 314.703 606 329.328 606C332.984 606 335.422 605.672 337.25 605.297V591.984C336.125 592.172 335.422 592.219 333.969 592.219C330.031 592.219 328.156 590.531 328.156 587.297V568.172H337.25V554.25H328.156V542.906H308.938ZM343.578 606H362.797V554.25H343.578V606ZM353.188 551.391C358.625 551.391 362.75 547.453 362.75 542.297C362.75 537.141 358.625 533.203 353.188 533.203C347.75 533.203 343.625 537.141 343.625 542.297C343.625 547.453 347.75 551.391 353.188 551.391ZM392.703 593.906C389.328 593.906 387.031 592.266 387.031 589.453C387.031 586.922 389.094 585.188 392.75 584.906L400.906 584.344V587.719C400.906 591.516 396.969 593.906 392.703 593.906ZM385.531 606.75C391.531 606.75 397.812 604.125 400.531 599.062H400.906V606H419.656V570.609C419.656 560.109 410.047 552.938 395.703 552.938C380.609 552.938 371.234 559.922 370.766 570.984H387.922C388.203 568.359 390.734 566.203 394.672 566.203C398.281 566.203 400.906 568.078 400.906 571.547V574.078L389.562 574.781C375.734 575.625 368.094 581.016 368.094 590.953C368.094 600.281 376.109 606.75 385.531 606.75ZM431.562 542.906V554.25H424.719V568.172H431.562V591.562C431.562 601.781 437.328 606 451.953 606C455.609 606 458.047 605.672 459.875 605.297V591.984C458.75 592.172 458.047 592.219 456.594 592.219C452.656 592.219 450.781 590.531 450.781 587.297V568.172H459.875V554.25H450.781V542.906H431.562ZM466.203 606H485.422V554.25H466.203V606ZM475.812 551.391C481.25 551.391 485.375 547.453 485.375 542.297C485.375 537.141 481.25 533.203 475.812 533.203C470.375 533.203 466.25 537.141 466.25 542.297C466.25 547.453 470.375 551.391 475.812 551.391ZM544.484 554.25H524.375L517.109 590.484H516.734L509.234 554.25H488.516L505.344 606H527.891L544.484 554.25ZM571.719 566.156C576.219 566.156 579.453 569.156 579.781 573.797H563.656C564.031 569.344 567.359 566.156 571.719 566.156ZM580.344 589.219C579.219 592.312 576.078 594.141 572.188 594.141C567.031 594.141 563.375 590.484 563.375 585.422V584.203H597.688V579C597.688 563.156 587.328 552.938 571.297 552.938C555.031 552.938 544.859 563.484 544.859 580.406C544.859 597.234 554.938 607.312 571.906 607.312C586.109 607.312 595.859 600.375 597.453 589.219H580.344Z" fill="white"/>
<rect x="391" y="774" width="297" height="90" fill="black"/>
<rect x="224" y="864" width="631" height="34" rx="17" fill="#181818"/>
<line x1="629.5" y1="310.5" x2="629.5" y2="603.5" stroke="white" stroke-width="5" stroke-linecap="round"/>
<defs>
<filter id="filter0_ii" x="99" y="170" width="881" height="591" filterUnits="userSpaceOnUse" color-interpolation-filters="sRGB">
<feFlood flood-opacity="0" result="BackgroundImageFix"/>
<feBlend mode="normal" in="SourceGraphic" in2="BackgroundImageFix" result="shape"/>
<feColorMatrix in="SourceAlpha" type="matrix" values="0 0 0 0 0 0 0 0 0 0 0 0 0 0 0 0 0 0 127 0" result="hardAlpha"/>
<feOffset dx="6" dy="6"/>
<feGaussianBlur stdDeviation="8"/>
<feComposite in2="hardAlpha" operator="arithmetic" k2="-1" k3="1"/>
<feColorMatrix type="matrix" values="0 0 0 0 0 0 0 0 0 0 0 0 0 0 0 0 0 0 0.5 0"/>
<feBlend mode="normal" in2="shape" result="effect1_innerShadow"/>
<feColorMatrix in="SourceAlpha" type="matrix" values="0 0 0 0 0 0 0 0 0 0 0 0 0 0 0 0 0 0 127 0" result="hardAlpha"/>
<feOffset dx="-6" dy="-6"/>
<feGaussianBlur stdDeviation="8"/>
<feComposite in2="hardAlpha" operator="arithmetic" k2="-1" k3="1"/>
<feColorMatrix type="matrix" values="0 0 0 0 0 0 0 0 0 0.76 0 0 0 0 1 0 0 0 1 0"/>
<feBlend mode="normal" in2="effect1_innerShadow" result="effect2_innerShadow"/>
</filter>
</defs>
</svg>
